<svg width="2376" height="320" xmlns="http://www.w3.org/2000/svg">

 <g>
  <title>Layer 1</title>
  <path stroke-opacity="0" d="m27,240c0,0 26.67,0 26.67,0c0,0 0,-186.41 0,-186.41c0,0 106.66,0 106.66,0c0,0 0,186.41 0,186.41c0,0 26.67,0 26.67,0c0,0 0,-186.41 0,-186.41c0,0 106.66,0 106.66,0c0,0 0,186.41 0,186.41c0,0 26.67,0 26.67,0c0,0 0,-213 0,-213c0,0 -293.33,0 -293.33,0c0,0 0,213 0,213zm347,-159.41c0,0 26.67,0 26.67,0c0,0 0,-26.59 0,-26.59c0,0 -26.67,0 -26.67,0c0,0 0,26.59 0,26.59zm26.67,159.41c0,0 0,-133 0,-133c0,0 -26.67,0 -26.67,0c0,0 0,133 0,133c0,0 26.67,0 26.67,0zm266.33,-133c0,0 -213,0 -213,0c0,0 0,79.59 0,79.59c0,0 186.33,0 186.33,0c0,0 0,26.82 0,26.82c0,0 -186.33,0 -186.33,0c0,0 0,26.59 0,26.59c0,0 213,0 213,0c0,0 0,-80 0,-80c0,0 -186.33,0 -186.33,0c0,0 0,-26.41 0,-26.41c0,0 186.33,0 186.33,0c0,0 0,-26.59 0,-26.59zm267,0c0,0 -213,0 -213,0c0,0 0,79.59 0,79.59c0,0 186.33,0 186.33,0c0,0 0,26.82 0,26.82c0,0 -186.33,0 -186.33,0c0,0 0,26.59 0,26.59c0,0 213,0 213,0c0,0 0,-80 0,-80c0,0 -186.33,0 -186.33,0c0,0 0,-26.41 0,-26.41c0,0 186.33,0 186.33,0c0,0 0,-26.59 0,-26.59zm54,-26.41c0,0 26.67,0 26.67,0c0,0 0,-26.59 0,-26.59c0,0 -26.67,0 -26.67,0c0,0 0,26.59 0,26.59zm26.67,159.41c0,0 0,-133 0,-133c0,0 -26.67,0 -26.67,0c0,0 0,133 0,133c0,0 26.67,0 26.67,0zm53.33,0c0,0 26.67,0 26.67,0c0,0 0,-106.41 0,-106.41c0,0 159.66,0 159.66,0c0,0 0,106.41 0,106.41c0,0 26.67,0 26.67,0c0,0 0,-133 0,-133c0,0 -213,0 -213,0c0,0 0,133 0,133zm267,0c0,0 159.73,0 159.73,0c0,0 0,-26.59 0,-26.59c0,0 -133.06,0 -133.06,0c0,0 0,-79.82 0,-79.82c0,0 159.66,0 159.66,0c0,0 0,132.82 0,132.82c0,0 -186.33,0 -186.33,0c0,0 0,26.59 0,26.59c0,0 213,0 213,0c0,0 0,-186 0,-186c0,0 -213,0 -213,0c0,0 0,133 0,133zm427,-106.41c0,0 53,0 53,0c0,0 0,-106.59 0,-106.59c0,0 -26.67,0 -26.67,0c0,0 0,80 0,80c0,0 -159.66,0 -159.66,0c0,0 0,-80 0,-80c0,0 -26.67,0 -26.67,0c0,0 0,213 0,213c0,0 26.67,0 26.67,0c0,0 0,-106.41 0,-106.41c0,0 106.66,0 106.66,0c0,0 0,106.41 0,106.41c0,0 106.67,0 106.67,0c0,0 0,-26.59 0,-26.59c0,0 -80,0 -80,0c0,0 0,-79.82 0,-79.82zm134,106.41c0,0 213,0 213,0c0,0 0,-26.59 0,-26.59c0,0 -186.33,0 -186.33,0c0,0 0,-79.82 0,-79.82c0,0 159.66,0 159.66,0c0,0 0,26.41 0,26.41c0,0 -133.05,0 -133.05,0c0,0 0,26.59 0,26.59c0,0 159.72,0 159.72,0c0,0 0,-79.59 0,-79.59c0,0 -213,0 -213,0c0,0 0,133 0,133zm427,26.41c0,0 -160,0 -160,0c0,0 0,26.59 0,26.59c0,0 186.67,0 186.67,0c0,0 0,-186 0,-186c0,0 -26.67,0 -26.67,0c0,0 0,159.41 0,159.41zm-26.67,-53c0,0 -106.66,0 -106.66,0c0,0 0,-106.41 0,-106.41c0,0 -26.67,0 -26.67,0c0,0 0,133 0,133c0,0 133.33,0 133.33,0c0,0 0,-26.59 0,-26.59z" stroke="#2ca9e1" fill="#2ca9e1" id="パス"/>
 </g>
</svg>